<?xml version="1.0" encoding="utf-8" ?>
<svg xmlns="http://www.w3.org/2000/svg" xmlns:xlink="http://www.w3.org/1999/xlink" width="1023" height="1024">
	<path fill="#083077" d="M510.117 91.7924C534.387 89.7292 561.137 96.7441 583.301 106.343C626.47 125.041 658.671 161.056 675.91 204.518C680.435 204.621 684.964 204.481 689.485 204.745C724.954 206.818 757.38 221.412 781.127 248.185C807.694 278.137 815.232 312.161 812.913 351.136C823.123 354.02 833.556 356.999 842.819 362.304C862.977 373.849 878.964 393.983 884.945 416.487C892.488 444.862 882.916 460.354 869.187 484.067C877.45 516.644 875.561 536.525 876.648 569.065C892.494 571.88 906.006 575.304 918.286 586.239C931.351 597.874 938.199 613.78 939.056 631.158C939.871 647.712 934.227 665.213 922.931 677.482C904.131 697.9 882.921 697.49 857.208 698.449C849.586 721.616 837.484 742.186 826.79 763.959C824.794 762.805 822.73 761.656 820.459 761.152C817.266 760.443 813.77 760.568 811.011 762.509C808.774 764.082 807.474 766.557 807.136 769.241C806.47 774.521 809.405 778.461 812.48 782.349C806.069 795.35 793.948 807.771 783.787 818.028C719.557 882.866 638.607 923.049 547.281 931.182C535.579 932.224 523.677 932.393 511.932 932.459C490.691 931.827 469.977 930.448 449.019 926.703Q443.526 925.7 438.064 924.534Q432.603 923.368 427.179 922.04Q421.755 920.713 416.373 919.224Q410.991 917.735 405.655 916.087Q400.32 914.439 395.036 912.632Q389.752 910.826 384.524 908.863Q379.296 906.901 374.129 904.783Q368.962 902.666 363.86 900.395Q358.758 898.125 353.726 895.704Q348.694 893.283 343.736 890.713Q338.778 888.143 333.899 885.427Q329.02 882.711 324.223 879.851Q319.427 876.991 314.718 873.989Q310.009 870.987 305.392 867.847Q300.774 864.707 296.253 861.43Q291.73 858.154 287.308 854.744Q276.698 846.448 266.735 837.385C261.147 832.281 255.769 826.78 249.547 822.441C243.226 818.032 235.509 816.444 228.443 813.631C209.03 805.902 194.019 790.268 182.271 773.454C162.751 773.319 143.606 771.27 126.64 760.756Q125.741 760.193 124.856 759.608Q123.971 759.023 123.101 758.417Q122.231 757.811 121.375 757.184Q120.52 756.557 119.68 755.909Q118.84 755.261 118.016 754.594Q117.192 753.926 116.385 753.238Q115.577 752.55 114.787 751.843Q113.996 751.136 113.223 750.41Q112.45 749.684 111.694 748.939Q110.939 748.194 110.202 747.432Q109.465 746.669 108.747 745.888Q108.029 745.108 107.33 744.31Q106.631 743.513 105.951 742.698Q105.272 741.884 104.612 741.053Q103.953 740.222 103.314 739.376Q102.675 738.53 102.056 737.668Q101.438 736.806 100.84 735.93Q100.243 735.053 99.6674 734.162Q99.0916 733.272 98.5376 732.367Q97.9836 731.463 97.4518 730.545Q96.9199 729.627 96.4104 728.697Q95.901 727.767 95.4144 726.824Q94.9277 725.882 94.464 724.928Q94.0004 723.974 93.56 723.009Q93.1197 722.044 92.7029 721.069Q92.2861 720.094 91.8932 719.109Q91.5002 718.123 91.1313 717.129Q90.7624 716.135 90.4177 715.132Q90.073 714.128 89.7528 713.117Q89.4326 712.106 89.1371 711.087Q88.8416 710.069 88.5708 709.043Q88.3001 708.018 88.0544 706.986C82.7874 684.392 87.0619 661.311 99.4086 641.734C114.634 617.592 135.635 608.808 162.382 602.795C154.416 565.158 151.332 522.937 159.95 485.168C149.558 474.688 141.312 461.607 138.527 446.976C134.45 425.567 140.644 404.03 152.901 386.357C166.382 366.919 187.711 358.278 210.253 354.278C215.685 328.376 223.676 303.364 240.936 282.717C266.613 252.003 300.1 241.211 338.549 237.909C346.637 206.5 358.141 176.768 380.144 152.29C407.941 121.366 441.122 103.499 481.852 95.6562C491.193 93.8575 500.609 92.2885 510.117 91.7924ZM515.803 332.2C474.836 336.02 434.71 350.655 407.878 383.244C385.331 410.629 373.387 447.261 376.947 482.706Q378.088 493.478 379.99 504.142L290.382 504.121C274.586 504.142 256.227 503.214 240.663 504.532C238.832 518.91 237.564 532.791 237.438 547.309C277.582 542.435 349.405 542.985 382.379 568.755C389.145 574.043 394.39 580.609 395.398 589.417C396.256 596.922 395.746 604.602 395.598 612.138Q395.351 625.645 395.43 639.153L395.505 695.751C395.583 713.964 396.901 733.032 392.783 750.923C390.116 762.51 383.988 773.274 376.544 782.453C370.626 789.752 363.741 795.84 356.43 801.697C364.812 807.848 374.388 812.551 383.641 817.237Q386.195 818.513 388.774 819.739Q391.352 820.965 393.954 822.141Q396.556 823.317 399.18 824.442Q401.804 825.566 404.45 826.64Q407.095 827.714 409.761 828.736Q412.427 829.758 415.113 830.728Q417.798 831.698 420.502 832.615Q423.206 833.533 425.927 834.398Q428.648 835.262 431.385 836.074Q434.122 836.886 436.875 837.644Q439.628 838.402 442.394 839.107Q445.161 839.812 447.941 840.462Q450.721 841.113 453.513 841.71Q456.306 842.306 459.109 842.848Q461.912 843.39 464.725 843.878Q467.538 844.365 470.361 844.798Q473.183 845.231 476.013 845.608Q478.843 845.986 481.68 846.309Q484.517 846.631 487.359 846.899Q490.202 847.166 493.049 847.378Q495.896 847.59 498.747 847.747Q501.598 847.904 504.451 848.005Q507.305 848.106 510.16 848.152Q513.014 848.197 515.87 848.188Q518.725 848.178 521.579 848.112Q524.434 848.047 527.286 847.926Q530.139 847.805 532.988 847.629Q535.838 847.453 538.684 847.221Q541.53 846.989 544.37 846.702Q547.211 846.415 550.046 846.073Q552.88 845.731 555.707 845.333Q558.535 844.936 561.354 844.484Q564.736 843.958 568.104 843.349Q571.471 842.74 574.823 842.047Q578.175 841.355 581.508 840.58Q584.841 839.804 588.155 838.947Q591.468 838.089 594.759 837.15Q598.05 836.21 601.316 835.19Q604.583 834.169 607.823 833.068Q611.064 831.966 614.276 830.785Q617.488 829.604 620.67 828.344Q623.852 827.083 627.001 825.744Q630.151 824.405 633.267 822.989Q636.382 821.572 639.462 820.079Q642.541 818.586 645.583 817.017Q648.624 815.448 651.626 813.804Q654.628 812.16 657.588 810.442Q660.548 808.725 663.465 806.934Q666.381 805.144 669.253 803.281Q672.124 801.419 674.948 799.486Q677.773 797.554 680.548 795.551Q683.324 793.549 686.049 791.479Q688.774 789.409 691.447 787.271Q694.12 785.134 696.74 782.931Q699.359 780.729 701.923 778.462Q704.487 776.195 706.994 773.865Q709.501 771.535 711.949 769.144Q714.398 766.753 716.787 764.302Q719.175 761.851 721.502 759.341Q723.829 756.832 726.093 754.265Q728.358 751.699 730.558 749.077Q732.757 746.455 734.892 743.78Q737.026 741.105 739.093 738.377Q741.161 735.65 743.16 732.872C750.947 722.23 759.612 709.735 764.417 697.427L759.125 697.397C750.654 697.414 727.62 698.731 720.665 695.988C714.244 693.457 705.736 685.775 700.685 681.012C718.151 679.703 735.827 680.88 753.323 681.084Q794.44 681.551 835.558 681.574C852.728 681.686 871.415 683.797 888.238 679.751C897.179 677.6 904.701 672.761 910.698 665.825C919.3 655.876 923.587 643.467 922.513 630.317C921.518 618.133 916.101 606.3 906.689 598.344C896.406 589.653 884.195 585.164 870.685 586.389C868.573 586.58 866.469 586.901 864.372 587.211C859.97 567.217 854.342 552.278 836.567 540.86C823.697 532.593 808.972 529.478 793.937 532.766Q792.388 533.113 790.857 533.535Q789.327 533.957 787.818 534.452Q786.31 534.948 784.827 535.515Q783.345 536.082 781.891 536.721Q780.437 537.359 779.016 538.067Q777.595 538.775 776.21 539.55Q774.825 540.325 773.478 541.167Q772.132 542.008 770.828 542.914Q769.524 543.819 768.265 544.786Q767.006 545.754 765.795 546.781Q764.585 547.808 763.425 548.892Q762.265 549.976 761.159 551.115Q760.053 552.254 759.003 553.445Q757.953 554.635 756.962 555.876Q755.971 557.116 755.041 558.402Q754.111 559.689 753.244 561.019Q750.733 564.99 748.668 569.21Q746.602 573.43 745.007 577.849C725.741 572.623 710.265 569.587 691.958 579.943C679.42 587.036 670.985 599.17 667.193 612.925C664.357 623.208 664.599 633.172 666.875 643.522C663.304 640.416 659.451 637.353 656.235 633.874C655.7 615.329 661.811 596.185 674.654 582.604C685.352 571.291 700.648 564.108 716.255 563.757C724.121 563.58 731.486 564.745 739.115 566.532C751.328 546.875 764.98 529.143 788.538 523.269C788.664 523.238 788.791 523.212 788.917 523.183C788.169 516.618 788.229 510.09 787.769 503.515C774.838 503.041 761.823 503.467 748.879 503.488C717.109 503.539 685.274 503.97 653.511 503.545C654.263 494.919 655.291 486.191 655.486 477.535C656.297 441.581 646.58 410.757 623.322 382.987C598.884 353.809 562.218 335.747 524.47 332.313C521.565 332.049 518.713 331.983 515.803 332.2ZM352.604 271.946C317.804 273.472 282.806 281.272 258.439 308.033C239.218 329.143 231.453 355.532 229.686 383.447C202.359 382.098 188.801 384.505 167.956 403.431Q162.274 408.57 157.328 414.421C156.567 414.054 156.874 414.291 156.248 413.528C156.088 413.332 155.935 413.129 155.779 412.93C153.049 419.658 151.4 426.048 151.421 433.362C151.459 446.715 156.08 459.892 165.658 469.391C174.281 477.943 184.337 482.534 196.138 484.939C217.53 489.299 239.868 486.619 261.533 486.506L358.451 486.571C358.374 476.643 358.166 466.677 359.111 456.781Q359.254 455.173 359.431 453.569Q359.608 451.965 359.819 450.365Q360.03 448.765 360.274 447.169Q360.518 445.574 360.796 443.984Q361.074 442.394 361.385 440.81Q361.696 439.227 362.041 437.65Q362.385 436.073 362.763 434.504Q363.14 432.935 363.551 431.374Q363.961 429.813 364.404 428.261Q364.848 426.709 365.324 425.167Q365.799 423.625 366.307 422.093Q366.816 420.561 367.356 419.04Q367.896 417.519 368.468 416.01Q369.04 414.501 369.644 413.004Q370.248 411.507 370.883 410.023Q371.518 408.54 372.184 407.07Q372.85 405.599 373.547 404.144Q374.244 402.688 374.971 401.247Q375.699 399.806 376.456 398.381Q377.214 396.956 378.001 395.547Q378.789 394.138 379.606 392.746Q380.422 391.354 381.268 389.98Q382.114 388.605 382.989 387.249Q383.864 385.892 384.767 384.555Q385.67 383.217 386.601 381.899Q387.531 380.58 388.49 379.282Q389.448 377.983 390.434 376.705Q391.42 375.427 392.432 374.17Q393.444 372.913 394.483 371.677Q395.521 370.442 396.585 369.228Q397.65 368.015 398.739 366.824Q399.829 365.634 400.943 364.466C431.098 332.927 472.353 315.812 515.782 314.978C555.901 314.207 596.032 331.011 624.731 358.863C663.224 396.222 672.731 434.841 673.417 486.463C707.407 486.986 741.488 486.477 775.488 486.5L805.347 486.587C813.695 486.654 822.226 487.084 830.502 485.821C838.617 484.582 845.58 481.994 852.109 476.939C862.93 468.56 869.386 457.226 871.097 443.668C873.623 423.648 864.967 405.999 852.891 390.614C841.974 377.667 824.113 369.056 807.839 365.446L794.312 363.89C799.748 347.938 799.394 329.9 796.581 313.49Q796.334 312.122 796.053 310.761Q795.773 309.4 795.459 308.046Q795.145 306.692 794.798 305.346Q794.451 304.001 794.07 302.664Q793.69 301.327 793.277 300Q792.864 298.673 792.418 297.356Q791.973 296.04 791.495 294.735Q791.017 293.43 790.507 292.137Q789.997 290.844 789.456 289.564Q788.914 288.284 788.341 287.018Q787.768 285.752 787.164 284.5Q786.561 283.248 785.926 282.012Q785.292 280.775 784.627 279.555Q783.962 278.334 783.267 277.13Q782.573 275.926 781.849 274.74Q781.125 273.554 780.371 272.386Q779.618 271.218 778.837 270.068Q778.055 268.919 777.245 267.79Q776.436 266.66 775.599 265.551Q774.761 264.441 773.897 263.353Q773.033 262.265 772.142 261.198Q771.251 260.131 770.334 259.086Q769.417 258.042 768.475 257.02Q767.533 255.999 766.566 255.001Q765.598 254.003 764.607 253.029Q763.616 252.055 762.6 251.105Q761.585 250.156 760.547 249.232Q759.509 248.308 758.448 247.41Q757.388 246.512 756.305 245.64Q755.223 244.768 754.119 243.923Q753.016 243.078 751.892 242.261Q750.768 241.444 749.624 240.654C729.809 226.688 698.828 216.721 674.593 221.013C668.336 211.945 662.546 202.364 657.26 192.7L655.811 193.238C655.655 193.183 655.49 193.148 655.342 193.074C652.874 191.832 649.278 186.103 647.255 183.876Q643.193 179.385 638.747 175.275Q634.302 171.164 629.507 167.466C586.972 133.981 531.526 120.045 478.488 133.101C446.524 140.97 414.804 158.732 392.771 183.394C385.823 191.173 379.836 200.058 374.481 208.999Q371.106 214.675 368.194 220.602Q365.282 226.53 362.851 232.67Q360.421 238.81 358.487 245.125Q356.554 251.439 355.13 257.888C354.093 262.53 353.511 267.274 352.604 271.946ZM348.871 254.446C315.646 254.511 281.125 263.033 257.012 287.208C235.012 309.264 225.572 341.03 223.24 371.477C202.718 370.236 189.039 373.829 173.498 387.599C168.062 392.415 157.096 404.131 156.656 411.754C156.6 412.728 156.949 413.549 157.328 414.421Q162.274 408.57 167.956 403.431C188.801 384.505 202.359 382.098 229.686 383.447C231.453 355.532 239.218 329.143 258.439 308.033C282.806 281.272 317.804 273.472 352.604 271.946C353.511 267.274 354.093 262.53 355.13 257.888Q356.554 251.439 358.487 245.125Q360.421 238.81 362.851 232.67Q365.282 226.53 368.194 220.602Q371.106 214.675 374.481 208.999C379.836 200.058 385.823 191.173 392.771 183.394C414.804 158.732 446.524 140.97 478.488 133.101C531.526 120.045 586.972 133.981 629.507 167.466Q634.302 171.164 638.747 175.275Q643.193 179.385 647.255 183.876C649.278 186.103 652.874 191.832 655.342 193.074C655.49 193.148 655.655 193.183 655.811 193.238C656.36 192.232 656.626 192.005 656.33 190.836C655.319 186.842 651.926 182.391 649.665 178.998Q648.379 177.061 647.036 175.163Q645.693 173.266 644.294 171.409Q642.894 169.553 641.44 167.739Q639.985 165.926 638.477 164.157Q636.968 162.388 635.407 160.665Q633.846 158.942 632.235 157.267Q630.623 155.592 628.961 153.965Q627.3 152.339 625.59 150.764Q623.881 149.188 622.125 147.665Q620.368 146.141 618.567 144.671Q616.766 143.201 614.922 141.786Q613.078 140.371 611.192 139.012Q609.305 137.652 607.379 136.35Q605.453 135.049 603.489 133.805Q601.525 132.561 599.524 131.377Q597.523 130.193 595.488 129.07Q593.622 128.054 591.731 127.085Q589.84 126.116 587.925 125.194Q586.01 124.273 584.073 123.399Q582.136 122.526 580.177 121.701Q578.219 120.877 576.241 120.101Q574.262 119.326 572.265 118.6Q570.268 117.875 568.253 117.199Q566.239 116.523 564.208 115.898Q562.177 115.273 560.131 114.699Q558.085 114.125 556.026 113.603Q553.966 113.08 551.894 112.609Q549.822 112.138 547.739 111.719Q545.656 111.3 543.563 110.933Q541.47 110.566 539.368 110.251Q537.267 109.937 535.158 109.675Q533.049 109.413 530.935 109.204Q528.82 108.995 526.701 108.839Q524.582 108.683 522.459 108.58Q520.337 108.477 518.212 108.427Q516.088 108.377 513.963 108.38Q511.838 108.383 509.714 108.439Q507.59 108.496 505.468 108.605Q503.346 108.714 501.227 108.877Q499.108 109.039 496.994 109.254Q494.88 109.47 492.773 109.738Q490.665 110.006 488.564 110.327Q486.463 110.647 484.372 111.02Q482.28 111.393 480.198 111.819Q478.116 112.244 476.045 112.721Q473.975 113.198 471.916 113.727Q469.858 114.256 467.814 114.836Q465.77 115.416 463.741 116.047Q461.813 116.651 459.9 117.302Q457.986 117.953 456.09 118.65Q454.193 119.348 452.314 120.091Q450.435 120.834 448.574 121.623Q446.713 122.411 444.873 123.245Q443.032 124.078 441.212 124.956Q439.392 125.834 437.593 126.756Q435.795 127.678 434.02 128.643Q432.244 129.609 430.493 130.617Q428.742 131.625 427.016 132.676Q425.289 133.726 423.589 134.818Q421.889 135.91 420.215 137.044Q418.542 138.177 416.897 139.35Q415.252 140.523 413.635 141.736Q412.019 142.95 410.433 144.201Q408.847 145.453 407.291 146.744Q405.736 148.034 404.212 149.361Q402.689 150.689 401.198 152.053Q399.707 153.417 398.25 154.817Q396.792 156.217 395.369 157.652Q393.947 159.087 392.559 160.556Q391.171 162.025 389.82 163.527Q388.468 165.03 387.154 166.564Q385.839 168.099 384.562 169.665Q383.285 171.232 382.047 172.829Q380.808 174.425 379.609 176.052Q378.41 177.678 377.25 179.333Q376.091 180.988 374.972 182.671Q373.853 184.354 372.775 186.063Q371.698 187.773 370.662 189.508Q369.626 191.243 368.633 193.003Q367.639 194.763 366.689 196.546C356.935 214.935 351.376 233.782 348.871 254.446ZM274.063 565.212C252.118 566.609 204.147 568.693 189.42 586.12C187.45 588.452 186.123 590.704 186.439 593.828C186.945 598.841 190.409 602.51 194.252 605.417C215.261 621.312 265.818 626.634 291.621 624.557C314.984 623.589 355.966 621.202 372.522 602.983C374.905 600.36 376.588 597.389 378.383 594.356C369.909 579.931 357.548 575.797 342.06 571.774Q337.911 570.689 333.722 569.77Q329.534 568.851 325.312 568.1Q321.09 567.349 316.841 566.768Q312.592 566.186 308.324 565.774Q304.055 565.362 299.774 565.12Q295.492 564.879 291.205 564.809Q286.917 564.739 282.63 564.839Q278.343 564.94 274.063 565.212ZM376.301 608.114L375.691 608.374C364.382 613.297 354.637 619.203 342.677 623.066C304.799 635.299 249.299 635.866 211.972 621.412C203.276 618.045 195.043 613.418 187.302 608.248C186.412 621.252 186.865 634.393 187.592 647.394C198.683 652.776 209.688 657.88 221.42 661.753C265.671 676.363 312.381 673.637 355.983 658.471C360.944 656.745 373.518 652.338 376.766 648.3C376.854 637.52 378.089 617.814 376.301 608.114ZM169.011 622.653C148.061 626.419 129.905 633.193 117.165 651.295C106.546 666.383 103.091 683.95 106.264 702.026Q106.546 703.585 106.905 705.127Q107.264 706.67 107.699 708.193Q108.134 709.716 108.644 711.215Q109.154 712.715 109.738 714.187Q110.321 715.659 110.977 717.101Q111.634 718.542 112.36 719.95Q113.087 721.357 113.883 722.726Q114.678 724.096 115.541 725.424Q116.404 726.752 117.331 728.036Q118.259 729.32 119.249 730.557Q120.239 731.793 121.289 732.979Q122.339 734.164 123.446 735.296Q124.554 736.429 125.716 737.504Q126.879 738.58 128.093 739.597Q129.307 740.614 130.571 741.569Q131.834 742.525 133.143 743.416Q134.998 744.667 136.924 745.805Q138.85 746.944 140.841 747.966Q142.831 748.988 144.879 749.89Q146.926 750.792 149.024 751.571Q151.121 752.35 153.261 753.003Q155.401 753.656 157.576 754.181Q159.751 754.706 161.954 755.1Q164.156 755.495 166.378 755.758C169.636 755.828 172.9 755.953 176.158 755.823Q174.651 749.481 172.764 743.242C154.462 740.381 140.141 734.947 128.845 719.523C120.302 707.858 117.958 693.633 120.146 679.492Q120.342 678.28 120.599 677.08Q120.855 675.879 121.169 674.693Q121.484 673.506 121.857 672.337Q122.231 671.167 122.661 670.017Q123.091 668.868 123.578 667.741Q124.064 666.614 124.606 665.512Q125.147 664.41 125.742 663.337Q126.338 662.263 126.985 661.22Q127.633 660.177 128.331 659.167Q129.029 658.157 129.776 657.183Q130.523 656.209 131.317 655.273Q132.111 654.337 132.951 653.441Q133.79 652.546 134.673 651.693Q135.555 650.839 136.479 650.031Q137.402 649.222 138.365 648.46Q139.327 647.698 140.326 646.984C150.1 639.976 161.047 638.135 172.605 636.021C172.653 633.108 173.609 625.314 171.633 623.005C171.127 622.413 170.158 622.584 169.436 622.6C169.293 622.604 169.153 622.635 169.011 622.653ZM166.186 655.992C156.339 658.844 147.446 664.269 142.333 673.419Q141.967 674.068 141.633 674.734Q141.299 675.401 140.998 676.082Q140.697 676.764 140.43 677.46Q140.163 678.156 139.931 678.864Q139.699 679.572 139.502 680.291Q139.305 681.01 139.143 681.738Q138.982 682.465 138.857 683.2Q138.731 683.935 138.642 684.674Q138.553 685.414 138.501 686.158Q138.448 686.901 138.433 687.646Q138.417 688.392 138.438 689.136Q138.459 689.881 138.516 690.625Q138.574 691.368 138.668 692.107Q138.762 692.846 138.893 693.58Q139.023 694.314 139.19 695.04Q139.356 695.767 139.558 696.484C141.434 702.917 145.643 708.912 150.631 713.324Q152.579 714.805 154.644 716.117Q156.709 717.43 158.877 718.564Q161.046 719.698 163.302 720.646Q165.557 721.593 167.885 722.348C167.826 710.398 170.432 664.356 167.125 656.499L166.186 655.992ZM187.559 660.024L187.298 699.948C187.118 727.893 187.038 754.714 208.031 776.053C216.532 784.695 225.84 790.883 237.084 795.364C237.339 795.148 237.948 794.638 238.148 794.438C239.515 793.07 240.769 792.012 242.798 791.873C243.708 791.811 244.625 791.804 245.541 791.736C233.09 786.538 221.655 779.572 212.461 769.587C193.803 749.323 193.906 723.081 193.967 697.194C193.993 686.069 193.908 674.923 194.393 663.808C192.135 662.503 189.884 661.21 187.559 660.024ZM256.041 795.072C254.231 796.413 252.715 797.543 250.539 798.235C249.73 798.492 248.926 798.759 248.114 799.006C267.413 806.032 292.82 805.138 312.545 800.526C331.014 796.208 353.575 784.4 363.62 767.572C364.231 766.548 364.281 766.793 363.976 765.554C361.825 763.991 359.694 763.771 357.15 763.284C353.963 766.978 350.929 771.084 347.384 774.435C332.423 788.578 310.917 796.193 290.642 797.659C283.728 798.159 276.383 798.292 269.511 797.297C265.251 796.68 260.217 795.038 256.041 795.072ZM364.206 671.216Q367.618 670.285 371.041 669.4L371.073 700.546C371.116 723.336 370.156 743.622 357.15 763.284C359.694 763.771 361.825 763.991 363.976 765.554C364.434 765.38 364.355 765.454 364.792 765.011C367.216 762.556 368.892 758.576 370.226 755.423C379.076 734.505 377.844 710.803 377.536 688.569C377.41 679.415 377.427 670.223 376.98 661.079C373.721 662.567 368.951 664.188 366.661 667.074C365.566 668.455 364.72 669.501 364.206 671.216ZM308.776 682.386C322.005 684.308 339.707 678.614 352.57 674.89L349.176 672.825C341.57 674.892 333.987 676.8 326.239 678.255C321.416 679.161 316.298 679.602 311.567 680.848C310.415 681.151 309.616 681.509 308.776 682.386ZM245.541 791.736C244.625 791.804 243.708 791.811 242.798 791.873C240.769 792.012 239.515 793.07 238.148 794.438C237.948 794.638 237.339 795.148 237.084 795.364C240.709 796.713 244.418 797.866 248.114 799.006C248.926 798.759 249.73 798.492 250.539 798.235C252.715 797.543 254.231 796.413 256.041 795.072C252.693 793.643 249.072 792.608 245.541 791.736Z"/>
	<defs>
		<linearGradient id="gradient_0" gradientUnits="userSpaceOnUse" x1="247.29456" y1="795.51501" x2="244.01811" y2="794.20807">
			<stop offset="0" stop-color="white" stop-opacity="0.1254902"/>
			<stop offset="1" stop-color="white" stop-opacity="0.15686275"/>
		</linearGradient>
	</defs>
	<path fill="url(#gradient_0)" d="M245.541 791.736C249.072 792.608 252.693 793.643 256.041 795.072C254.231 796.413 252.715 797.543 250.539 798.235C249.73 798.492 248.926 798.759 248.114 799.006C244.418 797.866 240.709 796.713 237.084 795.364C237.339 795.148 237.948 794.638 238.148 794.438C239.515 793.07 240.769 792.012 242.798 791.873C243.708 791.811 244.625 791.804 245.541 791.736Z"/>
	<defs>
		<linearGradient id="gradient_1" gradientUnits="userSpaceOnUse" x1="311.01968" y1="774.21967" x2="315.04642" y2="799.30725">
			<stop offset="0" stop-color="white" stop-opacity="0.79607844"/>
			<stop offset="1" stop-color="white"/>
		</linearGradient>
	</defs>
	<path fill="url(#gradient_1)" d="M256.041 795.072C260.217 795.038 265.251 796.68 269.511 797.297C276.383 798.292 283.728 798.159 290.642 797.659C310.917 796.193 332.423 788.578 347.384 774.435C350.929 771.084 353.963 766.978 357.15 763.284C359.694 763.771 361.825 763.991 363.976 765.554C364.281 766.793 364.231 766.548 363.62 767.572C353.575 784.4 331.014 796.208 312.545 800.526C292.82 805.138 267.413 806.032 248.114 799.006C248.926 798.759 249.73 798.492 250.539 798.235C252.715 797.543 254.231 796.413 256.041 795.072Z"/>
	<path fill="#08538C" d="M852.542 496.48C852.91 496.487 853.352 496.666 853.709 496.765C858.836 506.51 858.901 533.803 859.31 545.574C849.002 537.121 838.701 529.675 826.397 524.303C817.116 521.111 807.798 520.561 798.078 520.48L798.021 503.558C816.855 503.854 834.651 503.218 852.542 496.48Z"/>
	<path fill="#08538C" d="M173.098 495.976C189.268 502.325 206.953 503.48 224.116 503.748C221.287 517.745 220.585 537.77 221.893 551.961C215.31 553.538 209.002 555.444 202.725 557.989C191.919 562.241 182.688 568.601 174.254 576.517C167.568 550.969 170.331 521.894 173.098 495.976Z"/>
	<path fill="#083077" d="M277.282 571.2L277.923 571.119C297.682 568.823 349.862 575.314 364.593 587.319C366.911 589.208 369.328 591.926 369.549 595.058C369.689 597.031 368.677 598.833 367.356 600.215C354.314 613.851 309.248 617.235 290.284 618.198C266.369 618.165 221.859 616.674 202.269 602.749C199.517 600.793 196.966 598.304 196.518 594.796C196.259 592.766 196.763 590.995 198.06 589.413C200.926 585.92 205.923 583.867 210.03 582.218C231.622 573.552 254.471 573.157 277.282 571.2Z"/>
	<path fill="#FF9A6D" d="M194.393 663.808C221.139 675.448 249.616 681.051 278.709 681.935C287.818 682.211 300.333 680.512 308.776 682.386C322.005 684.308 339.707 678.614 352.57 674.89C352.751 674.49 352.664 674.773 352.541 674.003L349.916 672.288C352.958 671.107 363.875 666.275 366.209 666.939C364.464 668.795 360.804 669.004 359.692 671.214L360.236 671.723C361.734 671.826 362.791 671.617 364.206 671.216Q367.618 670.285 371.041 669.4L371.073 700.546C371.116 723.336 370.156 743.622 357.15 763.284C353.963 766.978 350.929 771.084 347.384 774.435C332.423 788.578 310.917 796.193 290.642 797.659C283.728 798.159 276.383 798.292 269.511 797.297C265.251 796.68 260.217 795.038 256.041 795.072C252.693 793.643 249.072 792.608 245.541 791.736C233.09 786.538 221.655 779.572 212.461 769.587C193.803 749.323 193.906 723.081 193.967 697.194C193.993 686.069 193.908 674.923 194.393 663.808Z"/>
	<path fill="#08538C" d="M807.7 697.731C818.742 697.214 829.957 697.813 841.005 698.122Q837.936 706.21 834.427 714.116Q830.917 722.023 826.978 729.724Q823.038 737.425 818.68 744.898Q814.323 752.371 809.56 759.592C760.136 836.138 678.41 890.443 589.686 909.516C494.048 930.075 398.959 909.992 317.261 857.162C302.188 846.858 288.012 835.207 274.102 823.396C280 822.84 285.971 823.039 291.887 822.599Q295.083 822.385 298.267 822.035Q301.451 821.685 304.617 821.199Q307.783 820.712 310.925 820.091Q314.067 819.469 317.18 818.714Q320.292 817.958 323.37 817.07Q326.447 816.182 329.484 815.162Q332.521 814.143 335.511 812.995Q338.501 811.846 341.439 810.571C352.191 818.553 364.75 825.391 376.779 831.255Q380.248 832.933 383.758 834.526Q387.267 836.119 390.815 837.626Q394.362 839.132 397.945 840.552Q401.528 841.972 405.145 843.304Q408.762 844.635 412.41 845.878Q416.058 847.121 419.735 848.275Q423.413 849.428 427.117 850.492Q430.822 851.555 434.551 852.528Q438.28 853.5 442.032 854.381Q445.784 855.262 449.557 856.052Q453.329 856.841 457.119 857.538Q460.91 858.235 464.716 858.839Q468.523 859.443 472.343 859.954Q476.163 860.465 479.994 860.883Q483.826 861.301 487.666 861.624Q491.507 861.948 495.354 862.178Q499.201 862.408 503.053 862.544Q506.904 862.68 510.758 862.722Q514.612 862.764 518.466 862.712Q522.319 862.659 526.171 862.513Q530.022 862.367 533.868 862.126Q537.715 861.886 541.555 861.552Q545.394 861.217 549.224 860.789Q553.055 860.361 556.873 859.84Q560.692 859.319 564.497 858.704Q568.301 858.09 572.09 857.383Q575.879 856.676 579.649 855.876Q583.419 855.077 587.169 854.185Q590.918 853.294 594.645 852.311Q598.372 851.328 602.073 850.255Q605.775 849.182 609.449 848.018Q613.123 846.855 616.768 845.602C687.568 821.078 748.818 765.165 781.524 697.964Q794.614 698.076 807.7 697.731Z"/>
	<path fill="#FF9A6D" d="M352.604 271.946C353.511 267.274 354.093 262.53 355.13 257.888Q356.554 251.439 358.487 245.125Q360.421 238.81 362.851 232.67Q365.282 226.53 368.194 220.602Q371.106 214.675 374.481 208.999C379.836 200.058 385.823 191.173 392.771 183.394C414.804 158.732 446.524 140.97 478.488 133.101C531.526 120.045 586.972 133.981 629.507 167.466Q634.302 171.164 638.747 175.275Q643.193 179.385 647.255 183.876C649.278 186.103 652.874 191.832 655.342 193.074C655.49 193.148 655.655 193.183 655.811 193.238L657.26 192.7C662.546 202.364 668.336 211.945 674.593 221.013C698.828 216.721 729.809 226.688 749.624 240.654Q750.768 241.444 751.892 242.261Q753.016 243.078 754.119 243.923Q755.223 244.768 756.305 245.64Q757.388 246.512 758.448 247.41Q759.509 248.308 760.547 249.232Q761.585 250.156 762.6 251.105Q763.616 252.055 764.607 253.029Q765.598 254.003 766.566 255.001Q767.533 255.999 768.475 257.02Q769.417 258.042 770.334 259.086Q771.251 260.131 772.142 261.198Q773.033 262.265 773.897 263.353Q774.761 264.441 775.598 265.551Q776.436 266.66 777.245 267.79Q778.055 268.919 778.837 270.068Q779.618 271.218 780.371 272.386Q781.125 273.554 781.849 274.74Q782.573 275.926 783.267 277.13Q783.962 278.334 784.627 279.555Q785.292 280.775 785.926 282.012Q786.561 283.248 787.164 284.5Q787.768 285.752 788.341 287.018Q788.914 288.284 789.456 289.564Q789.997 290.844 790.507 292.137Q791.017 293.43 791.495 294.735Q791.973 296.04 792.418 297.356Q792.864 298.673 793.277 300Q793.69 301.327 794.07 302.664Q794.451 304.001 794.798 305.346Q795.145 306.692 795.459 308.046Q795.773 309.4 796.053 310.761Q796.334 312.122 796.581 313.49C799.394 329.9 799.748 347.938 794.312 363.89L807.839 365.446C824.113 369.056 841.974 377.667 852.891 390.614C864.967 405.999 873.623 423.648 871.097 443.668C869.386 457.226 862.93 468.56 852.109 476.939C845.58 481.994 838.617 484.582 830.502 485.821C822.226 487.084 813.695 486.654 805.347 486.587L775.488 486.5C741.488 486.477 707.407 486.986 673.417 486.463C672.731 434.841 663.224 396.222 624.731 358.863C596.032 331.011 555.901 314.207 515.782 314.978C472.353 315.812 431.098 332.927 400.943 364.466Q399.829 365.634 398.739 366.824Q397.65 368.015 396.585 369.228Q395.521 370.442 394.483 371.677Q393.444 372.913 392.432 374.17Q391.42 375.427 390.434 376.705Q389.448 377.983 388.49 379.282Q387.531 380.58 386.601 381.899Q385.67 383.217 384.767 384.555Q383.864 385.892 382.989 387.249Q382.114 388.605 381.268 389.98Q380.422 391.354 379.606 392.746Q378.789 394.138 378.001 395.547Q377.214 396.956 376.456 398.381Q375.699 399.806 374.971 401.247Q374.244 402.688 373.547 404.144Q372.85 405.599 372.184 407.069Q371.518 408.54 370.883 410.023Q370.248 411.507 369.644 413.004Q369.04 414.501 368.468 416.01Q367.896 417.519 367.356 419.04Q366.816 420.561 366.307 422.093Q365.799 423.625 365.323 425.167Q364.848 426.709 364.404 428.261Q363.961 429.813 363.551 431.374Q363.14 432.935 362.763 434.504Q362.385 436.073 362.041 437.65Q361.696 439.227 361.385 440.81Q361.074 442.394 360.796 443.984Q360.518 445.574 360.274 447.169Q360.03 448.765 359.819 450.365Q359.608 451.965 359.431 453.569Q359.254 455.173 359.111 456.781C358.166 466.677 358.374 476.643 358.451 486.571L261.533 486.506C239.868 486.619 217.53 489.299 196.138 484.939C184.337 482.534 174.281 477.943 165.658 469.391C156.08 459.892 151.459 446.715 151.421 433.362C151.4 426.048 153.049 419.658 155.779 412.93C155.935 413.129 156.088 413.332 156.248 413.528C156.874 414.291 156.567 414.054 157.328 414.421Q162.274 408.57 167.956 403.431C188.801 384.505 202.359 382.098 229.686 383.447C231.453 355.532 239.218 329.143 258.439 308.033C282.806 281.272 317.804 273.472 352.604 271.946ZM534.847 158.692C521.575 160.385 508.066 164.139 499.537 175.232C495.761 180.143 493.436 185.828 491.13 191.524C475.046 190.685 463.112 193.277 450.87 204.371C439.807 214.396 431.036 227.935 430.405 243.194C429.9 255.401 433.654 265.923 441.986 274.882C452.019 285.671 464.983 289.193 479.337 289.599C495.437 290.055 511.637 289.397 527.75 289.439L560.747 289.478C580.619 289.552 602.743 291.199 617.971 275.964C626.737 267.194 631.372 254.953 631.37 242.608Q631.377 241.512 631.331 240.416Q631.284 239.321 631.184 238.229Q631.084 237.137 630.93 236.051Q630.776 234.966 630.569 233.889Q630.362 232.812 630.103 231.747Q629.843 230.682 629.531 229.63Q629.22 228.579 628.857 227.544Q628.494 226.51 628.081 225.494Q627.668 224.479 627.205 223.484Q626.743 222.49 626.232 221.52Q625.721 220.55 625.163 219.606Q624.605 218.662 624.002 217.747Q623.398 216.831 622.75 215.947Q622.103 215.062 621.412 214.21Q620.722 213.359 619.99 212.542Q619.259 211.725 618.488 210.945C609.852 202.362 597.717 197.619 586.097 194.759C577.488 179.232 568.074 165.675 550.132 160.559C545.468 159.23 539.695 158.23 534.847 158.692ZM674.593 221.013C683.321 237.294 688.254 258.004 690.155 276.298C726.866 289.21 756.378 306.617 773.981 343.233C781.03 357.896 784.794 376.264 782.853 392.501C787.157 383.098 790.942 373.674 794.312 363.89C799.748 347.938 799.394 329.9 796.581 313.49Q796.334 312.122 796.053 310.761Q795.773 309.4 795.459 308.046Q795.145 306.692 794.798 305.346Q794.451 304.001 794.07 302.664Q793.69 301.327 793.277 300Q792.864 298.673 792.418 297.356Q791.973 296.04 791.495 294.735Q791.017 293.43 790.507 292.137Q789.997 290.844 789.456 289.564Q788.914 288.284 788.341 287.018Q787.768 285.752 787.164 284.5Q786.561 283.248 785.926 282.012Q785.292 280.775 784.627 279.555Q783.962 278.334 783.267 277.13Q782.573 275.926 781.849 274.74Q781.125 273.554 780.371 272.386Q779.618 271.218 778.837 270.068Q778.055 268.919 777.245 267.79Q776.436 266.66 775.599 265.551Q774.761 264.441 773.897 263.353Q773.033 262.265 772.142 261.198Q771.251 260.131 770.334 259.086Q769.417 258.042 768.475 257.02Q767.533 255.999 766.566 255.001Q765.598 254.003 764.607 253.029Q763.616 252.055 762.6 251.105Q761.585 250.156 760.547 249.232Q759.509 248.308 758.448 247.41Q757.388 246.512 756.305 245.64Q755.223 244.768 754.119 243.923Q753.016 243.078 751.892 242.261Q750.768 241.444 749.624 240.654C729.809 226.688 698.828 216.721 674.593 221.013ZM807.839 365.446C802.377 382.952 795.808 399.495 785.216 414.659C781.967 419.309 778.219 423.556 774.775 428.053C804.976 421.689 830.553 412.622 852.891 390.614C841.974 377.667 824.113 369.056 807.839 365.446Z"/>
	<path fill="#083077" d="M534.847 158.692C539.695 158.23 545.468 159.23 550.132 160.559C568.074 165.675 577.488 179.232 586.097 194.759C597.717 197.619 609.852 202.362 618.488 210.945Q619.259 211.725 619.99 212.542Q620.722 213.359 621.412 214.21Q622.103 215.062 622.75 215.947Q623.398 216.831 624.002 217.747Q624.605 218.662 625.163 219.606Q625.721 220.55 626.232 221.52Q626.743 222.49 627.205 223.484Q627.668 224.479 628.081 225.494Q628.494 226.51 628.857 227.544Q629.22 228.579 629.531 229.63Q629.843 230.682 630.103 231.747Q630.362 232.812 630.569 233.889Q630.776 234.966 630.93 236.051Q631.084 237.137 631.184 238.229Q631.284 239.321 631.331 240.416Q631.377 241.512 631.37 242.608C631.372 254.953 626.737 267.194 617.971 275.964C602.743 291.199 580.619 289.552 560.747 289.478L527.75 289.439C511.637 289.397 495.437 290.055 479.337 289.599C464.983 289.193 452.019 285.671 441.986 274.882C433.654 265.923 429.9 255.401 430.405 243.194C431.036 227.935 439.807 214.396 450.87 204.371C463.112 193.277 475.046 190.685 491.13 191.524C493.436 185.828 495.761 180.143 499.537 175.232C508.066 164.139 521.575 160.385 534.847 158.692ZM534.008 170.593C520.938 173.671 508.908 177.605 501.427 189.543C498.944 193.503 497.422 197.732 495.904 202.132C483.515 199.638 472.336 199.3 461.411 206.546C452.554 212.419 446.44 220.627 444.376 231.141C442.605 240.165 444.242 249.654 449.429 257.313C455.071 265.645 463.885 270.804 473.682 272.613C490.238 275.671 507.536 273.597 524.25 273.451Q539.323 273.268 554.396 273.385C572.231 273.476 593.112 275.447 606.746 261.454C612.515 255.533 615.981 247.841 615.885 239.501C615.79 231.192 612.193 223.753 606.257 218.035C598.397 210.463 588.445 208.008 577.929 206.594C573.48 193.028 567.581 181.409 554.325 174.722C548.068 171.566 541.017 169.912 534.008 170.593Z"/>
	<path fill="#083077" d="M508.289 344.706C510 344.49 511.752 344.5 513.476 344.456C546.69 343.597 580.362 355.727 604.493 378.795Q605.649 379.891 606.778 381.015Q607.907 382.14 609.008 383.291Q610.11 384.442 611.182 385.62Q612.255 386.798 613.299 388.002Q614.343 389.206 615.357 390.435Q616.37 391.664 617.354 392.918Q618.338 394.171 619.29 395.448Q620.243 396.725 621.164 398.025Q622.086 399.325 622.975 400.647Q623.864 401.969 624.721 403.313Q625.577 404.656 626.401 406.02Q627.224 407.384 628.014 408.768Q628.804 410.151 629.56 411.554Q630.316 412.956 631.037 414.377Q631.759 415.798 632.445 417.235Q633.132 418.673 633.783 420.127Q634.434 421.581 635.049 423.051Q635.665 424.521 636.244 426.005Q636.823 427.489 637.366 428.987Q637.909 430.485 638.415 431.996Q638.921 433.507 639.39 435.029Q639.859 436.552 640.291 438.086Q640.723 439.619 641.117 441.163Q641.511 442.707 641.867 444.26Q642.224 445.813 642.542 447.374Q642.86 448.935 643.14 450.504Q643.42 452.072 643.661 453.647Q643.903 455.222 644.106 456.802Q644.309 458.382 644.473 459.967Q644.638 461.552 644.763 463.14Q644.889 464.729 644.975 466.319Q645.062 467.91 645.11 469.503Q645.132 471.008 645.117 472.513Q645.102 474.017 645.05 475.521Q644.998 477.025 644.909 478.528Q644.821 480.03 644.695 481.53Q644.57 483.029 644.407 484.525Q644.245 486.022 644.046 487.513Q643.847 489.005 643.612 490.491Q643.377 491.978 643.105 493.458Q642.833 494.938 642.526 496.411Q642.218 497.884 641.874 499.349Q641.53 500.815 641.15 502.271Q640.77 503.727 640.355 505.173Q639.94 506.62 639.489 508.056Q639.039 509.492 638.553 510.916Q638.068 512.34 637.547 513.753Q637.027 515.165 636.472 516.563Q635.917 517.962 635.328 519.347Q634.739 520.732 634.116 522.102Q633.494 523.472 632.838 524.827Q632.181 526.181 631.492 527.519Q630.803 528.857 630.082 530.177Q629.36 531.498 628.606 532.8Q627.852 534.103 627.067 535.386Q626.281 536.67 625.465 537.934Q624.648 539.198 623.8 540.442Q622.953 541.685 622.075 542.908Q621.198 544.13 620.29 545.331Q619.383 546.531 618.446 547.709Q617.51 548.888 616.545 550.042Q615.58 551.197 614.587 552.328Q613.593 553.458 612.573 554.564Q611.552 555.67 610.505 556.751C587.245 580.766 557.215 593.482 523.875 594.079C491.455 594.648 458.567 587.296 433.131 566.145C406.485 543.988 390.749 514.567 387.711 480.031C384.713 445.952 396.615 414.311 418.519 388.476C441.286 361.625 473.659 347.475 508.289 344.706ZM509.605 361.689Q508.222 361.777 506.841 361.9Q505.46 362.023 504.083 362.18Q502.706 362.338 501.333 362.529Q499.96 362.721 498.592 362.946Q497.224 363.172 495.863 363.431Q494.501 363.691 493.146 363.984Q491.791 364.278 490.444 364.605Q489.097 364.932 487.759 365.293Q486.42 365.653 485.091 366.047Q483.762 366.441 482.443 366.867Q481.124 367.294 479.816 367.754Q478.509 368.213 477.213 368.705Q475.917 369.197 474.633 369.721Q473.35 370.245 472.08 370.801Q470.81 371.357 469.555 371.944Q468.299 372.531 467.058 373.15Q465.818 373.768 464.593 374.417Q463.368 375.066 462.16 375.746Q460.951 376.425 459.76 377.134Q458.569 377.844 457.396 378.582Q456.223 379.321 455.069 380.089Q453.915 380.856 452.78 381.653Q451.646 382.449 450.531 383.273Q449.416 384.097 448.323 384.949Q447.229 385.801 446.157 386.68Q445.085 387.558 444.035 388.463Q442.985 389.369 441.958 390.3Q440.931 391.231 439.928 392.187Q438.924 393.143 437.945 394.124Q436.965 395.105 436.011 396.11Q435.056 397.115 434.127 398.144Q433.197 399.173 432.294 400.224C414.074 421.173 405.92 449.131 407.915 476.607C409.974 504.965 424.877 531.395 446.274 549.761C467.094 567.633 493.376 576.112 520.69 575.434C551.176 572.786 578.52 561.835 598.698 537.952C621.206 511.313 624.31 484.979 621.331 451.635C620.568 443.091 618.129 442.012 615.606 435.168C613.93 430.62 613.609 425.62 611.976 421.06C607.47 408.479 595.429 394.496 585.229 386.072C563.38 368.028 537.727 360.376 509.605 361.689Z"/>
	<path fill="#629CDC" d="M492.365 466.912C507.097 466.207 521.97 466.593 536.717 466.593C552.619 466.593 568.66 466.22 584.541 467.096C584.33 473.462 583.078 479.503 581.645 485.681C575.685 485.351 569.56 485.662 563.578 485.664L526.313 485.769C519.363 485.819 511.844 486.434 504.945 485.549C503.206 485.326 501.675 484.906 500.228 483.89C494.86 480.118 493.328 472.99 492.365 466.912Z"/>
	<path fill="#083077" d="M581.645 485.681C579.09 492.552 576.224 498.926 572.032 504.979Q571.057 506.376 570.016 507.725Q568.974 509.073 567.869 510.37Q566.763 511.667 565.597 512.908Q564.43 514.15 563.204 515.334Q561.979 516.518 560.698 517.641Q559.416 518.764 558.082 519.824Q556.748 520.884 555.365 521.878Q553.981 522.872 552.551 523.798Q551.12 524.724 549.647 525.58Q548.174 526.436 546.661 527.22Q545.148 528.003 543.599 528.713Q542.05 529.423 540.468 530.056Q538.887 530.69 537.276 531.247Q535.666 531.804 534.031 532.282Q532.395 532.76 530.739 533.158Q529.082 533.557 527.408 533.875Q525.716 534.183 524.012 534.406Q522.307 534.629 520.593 534.767Q518.88 534.905 517.161 534.958Q515.443 535.01 513.724 534.978Q512.005 534.945 510.29 534.826Q508.575 534.708 506.868 534.505Q505.16 534.301 503.465 534.013Q501.771 533.725 500.092 533.353Q498.414 532.98 496.756 532.525Q495.098 532.07 493.465 531.533Q491.831 530.996 490.227 530.378Q488.622 529.76 487.051 529.064Q485.479 528.367 483.944 527.593Q482.409 526.819 480.914 525.97Q479.419 525.12 477.969 524.197Q476.518 523.275 475.115 522.281Q473.719 521.303 472.375 520.256Q471.03 519.209 469.739 518.097Q468.448 516.984 467.215 515.808Q465.981 514.632 464.808 513.396Q463.635 512.16 462.525 510.867Q461.415 509.574 460.371 508.227Q459.327 506.88 458.352 505.482Q457.376 504.085 456.472 502.64Q455.568 501.196 454.737 499.708Q453.907 498.22 453.151 496.692Q452.396 495.164 451.718 493.601Q451.04 492.037 450.441 490.442Q449.842 488.846 449.324 487.223Q448.805 485.599 448.369 483.952Q447.932 482.305 447.578 480.638Q447.225 478.971 446.955 477.288C444.08 459.895 449.044 442.058 459.26 427.82Q460.264 426.436 461.335 425.104Q462.406 423.771 463.541 422.493Q464.676 421.214 465.872 419.993Q467.068 418.771 468.323 417.61Q469.578 416.449 470.888 415.351Q472.198 414.252 473.56 413.219Q474.922 412.186 476.334 411.222Q477.745 410.257 479.202 409.362Q480.659 408.468 482.158 407.646Q483.657 406.824 485.194 406.076Q486.732 405.329 488.304 404.657Q489.876 403.986 491.479 403.393Q493.083 402.799 494.713 402.285Q496.344 401.771 497.997 401.337Q499.651 400.904 501.324 400.552Q502.997 400.2 504.685 399.93Q506.397 399.643 508.121 399.443Q509.846 399.242 511.578 399.128Q513.31 399.014 515.046 398.987Q516.781 398.959 518.516 399.019Q520.251 399.078 521.981 399.224Q523.711 399.37 525.431 399.602Q527.151 399.835 528.858 400.153Q530.564 400.471 532.253 400.873Q533.941 401.276 535.608 401.763Q537.274 402.25 538.914 402.819Q540.554 403.389 542.163 404.039Q543.772 404.69 545.347 405.42Q546.922 406.151 548.458 406.959Q549.995 407.767 551.489 408.651Q552.983 409.534 554.431 410.492Q555.879 411.449 557.277 412.478C571.631 422.991 581.491 439.923 584.238 457.43C577.353 456.414 570.057 456.785 563.096 456.75Q544.669 456.59 526.241 456.752C520.071 456.815 513.627 457.33 507.487 457.069C506.01 457.006 505.273 456.758 504.158 455.824C503.919 453.34 505.134 450.877 505.699 448.464L505.18 447.653C504.952 447.626 504.724 447.591 504.495 447.572C502.244 447.385 499.545 448.578 497.921 450.095C493.448 454.275 492.453 461.118 492.365 466.912C493.328 472.99 494.86 480.118 500.228 483.89C501.675 484.906 503.206 485.326 504.945 485.549C511.844 486.434 519.363 485.819 526.313 485.769L563.578 485.664C569.56 485.662 575.685 485.351 581.645 485.681Z"/>
</svg>
